<svg xmlns="http://www.w3.org/2000/svg" viewBox="0 0 360.86 431.06"><defs><style>.cls-1,.cls-2,.cls-3{fill:#3f5996;}.cls-1{opacity:0.5;}.cls-2{opacity:0.8;}.cls-4{fill:#fff;}</style></defs><title>facebook</title><g id="Layer_2" data-name="Layer 2"><g id="Layer_1-2" data-name="Layer 1"><path class="cls-1" d="M167.81,48.83c40.66-21.51,90.55-33.34,135.42-20.31,54.37,15.79,62,73.89,55.85,122.77-25,199.56-168.14,300-241.33,273.15s25.37-92.86-54.53-140.78S-7.33,135.1,48.8,116.42c41.71-13.88,74.13-42,111.78-63.61C163,51.45,165.37,50.12,167.81,48.83Z"/><path class="cls-2" d="M124,55.3C157.51,23.83,202.52-.73,249.23,0,305.84.92,328.5,55,335.46,103.73c28.45,199.1-83.14,333.66-160.81,327.1s0-96.27-89.7-121.43S-22.26,184.68,27,151.87C63.54,127.49,87.39,91.77,118,61.05Q120.92,58.14,124,55.3Z"/><path class="cls-3" d="M127.91,69.06c30.67-28.76,71.81-51.22,114.52-50.53,51.74.82,72.45,50.22,78.82,94.8,26,182-76,305-147,299s0-88-82-111-98-114-53-144c33.43-22.28,55.24-54.93,83.24-83Q125.15,71.65,127.91,69.06Z"/><path class="cls-4" d="M192.85,168.89H206v-22.2a175.69,175.69,0,0,0-19.15-1c-18.95,0-31.93,11.56-31.93,32.81v19.55H134v24.82h20.92v62.46h25.63V222.89h20.08l3.19-24.82H180.55V181c0-7.17,2-12.08,12.3-12.08Z"/></g></g></svg>