<svg xmlns="http://www.w3.org/2000/svg" viewBox="0 0 360.86 431.06"><defs><style>.cls-1,.cls-2,.cls-3{fill:#339ce9;}.cls-1{opacity:0.4;}.cls-2{opacity:0.6;}.cls-4{fill:#fff;}</style></defs><title>twitter</title><g id="Layer_2" data-name="Layer 2"><g id="Layer_1-2" data-name="Layer 1"><path class="cls-1" d="M167.81,48.83c40.66-21.51,90.55-33.34,135.42-20.31,54.37,15.79,62,73.89,55.85,122.77-25,199.56-168.14,300-241.33,273.15s25.37-92.86-54.53-140.78S-7.33,135.1,48.8,116.42c41.71-13.88,74.13-42,111.78-63.61C163,51.45,165.37,50.12,167.81,48.83Z"/><path class="cls-2" d="M124,55.3C157.51,23.83,202.52-.73,249.23,0,305.84.92,328.5,55,335.46,103.73c28.45,199.1-83.14,333.66-160.81,327.1s0-96.27-89.7-121.43S-22.26,184.68,27,151.87C63.54,127.49,87.39,91.77,118,61.05Q120.92,58.14,124,55.3Z"/><path class="cls-3" d="M127.91,69.06c30.67-28.76,71.81-51.22,114.52-50.53,51.74.82,72.45,50.22,78.82,94.8,26,182-76,305-147,299s0-88-82-111-98-114-53-144c33.43-22.28,55.24-54.93,83.24-83Q125.15,71.65,127.91,69.06Z"/><path class="cls-4" d="M238.14,185.94c.09,1.29.09,2.58.09,3.87,0,39.36-30,84.72-84.72,84.72a84.13,84.13,0,0,1-45.72-13.37,60.83,60.83,0,0,0,7.19.37,59.66,59.66,0,0,0,37-12.72,29.82,29.82,0,0,1-27.84-20.65,38.27,38.27,0,0,0,5.62.46,31.18,31.18,0,0,0,7.83-1,29.77,29.77,0,0,1-23.87-29.22V198a29.94,29.94,0,0,0,13.46,3.78A29.8,29.8,0,0,1,117.93,162a84.63,84.63,0,0,0,61.39,31.16,33.77,33.77,0,0,1-.73-6.83,29.81,29.81,0,0,1,51.53-20.37,58.67,58.67,0,0,0,18.9-7.19,29.7,29.7,0,0,1-13.09,16.41,59.59,59.59,0,0,0,17.14-4.61,64,64,0,0,1-14.93,15.4Z"/></g></g></svg>